<svg xmlns="http://www.w3.org/2000/svg" viewBox="0 0 32 32" shape-rendering="crispEdges">
  <!-- Drop shadow -->
  <rect x="16" y="2" width="2" height="3" fill="#7b7b7b"/>
  <rect x="16" y="27" width="2" height="3" fill="#7b7b7b"/>
  <rect x="2" y="16" width="3" height="2" fill="#7b7b7b"/>
  <rect x="27" y="16" width="3" height="2" fill="#7b7b7b"/>

  <!-- Outer circle -->
  <rect x="12" y="5" width="8" height="1" fill="#dc143c"/>
  <rect x="10" y="6" width="2" height="1" fill="#dc143c"/>
  <rect x="20" y="6" width="2" height="1" fill="#dc143c"/>
  <rect x="8" y="7" width="2" height="1" fill="#dc143c"/>
  <rect x="22" y="7" width="2" height="1" fill="#dc143c"/>
  <rect x="7" y="8" width="1" height="2" fill="#dc143c"/>
  <rect x="24" y="8" width="1" height="2" fill="#dc143c"/>
  <rect x="6" y="10" width="1" height="2" fill="#dc143c"/>
  <rect x="25" y="10" width="1" height="2" fill="#dc143c"/>
  <rect x="5" y="12" width="1" height="8" fill="#dc143c"/>
  <rect x="26" y="12" width="1" height="8" fill="#dc143c"/>
  <rect x="6" y="20" width="1" height="2" fill="#dc143c"/>
  <rect x="25" y="20" width="1" height="2" fill="#dc143c"/>
  <rect x="7" y="22" width="1" height="2" fill="#dc143c"/>
  <rect x="24" y="22" width="1" height="2" fill="#dc143c"/>
  <rect x="8" y="24" width="2" height="1" fill="#dc143c"/>
  <rect x="22" y="24" width="2" height="1" fill="#dc143c"/>
  <rect x="10" y="25" width="2" height="1" fill="#dc143c"/>
  <rect x="20" y="25" width="2" height="1" fill="#dc143c"/>
  <rect x="12" y="26" width="8" height="1" fill="#dc143c"/>

  <!-- Crosshair lines - top -->
  <rect x="15" y="1" width="2" height="5" fill="#dc143c"/>
  <!-- Crosshair lines - bottom -->
  <rect x="15" y="26" width="2" height="5" fill="#dc143c"/>
  <!-- Crosshair lines - left -->
  <rect x="1" y="15" width="5" height="2" fill="#dc143c"/>
  <!-- Crosshair lines - right -->
  <rect x="26" y="15" width="5" height="2" fill="#dc143c"/>

  <!-- Center dot -->
  <rect x="14" y="14" width="4" height="4" fill="#dc143c"/>
  <rect x="15" y="15" width="2" height="2" fill="#000000"/>
</svg>
