<svg xmlns="http://www.w3.org/2000/svg" viewBox="0 0 32 32" shape-rendering="crispEdges">
  <!-- Drop shadow -->
  <rect x="4" y="10" width="26" height="18" fill="#7b7b7b"/>
  <rect x="6" y="7" width="12" height="5" fill="#7b7b7b"/>

  <!-- Folder body -->
  <rect x="3" y="9" width="26" height="18" fill="#000000"/>
  <rect x="4" y="10" width="24" height="16" fill="#d8d8d8"/>

  <!-- Folder tab -->
  <rect x="5" y="6" width="12" height="5" fill="#000000"/>
  <rect x="6" y="7" width="10" height="3" fill="#d8d8d8"/>

  <!-- Shading -->
  <rect x="4" y="23" width="24" height="3" fill="#b8b8b8"/>
  <rect x="25" y="11" width="3" height="12" fill="#b8b8b8"/>
  <rect x="6" y="9" width="10" height="1" fill="#b8b8b8"/>
  <rect x="5" y="12" width="22" height="1" fill="#8a8a8a"/>

  <!-- Highlights -->
  <rect x="4" y="10" width="24" height="1" fill="#ffffff"/>
  <rect x="4" y="10" width="1" height="16" fill="#ffffff"/>
  <rect x="6" y="7" width="10" height="1" fill="#ffffff"/>
  <rect x="6" y="7" width="1" height="3" fill="#ffffff"/>

  <!-- Emblem: sparkle -->
  <rect x="16" y="14" width="1" height="10" fill="#000000"/>
  <rect x="12" y="18" width="10" height="1" fill="#000000"/>
  <rect x="14" y="16" width="1" height="1" fill="#000000"/>
  <rect x="18" y="16" width="1" height="1" fill="#000000"/>
  <rect x="14" y="20" width="1" height="1" fill="#000000"/>
  <rect x="18" y="20" width="1" height="1" fill="#000000"/>
  <rect x="15" y="17" width="3" height="3" fill="#ffffff"/>
  <rect x="16" y="18" width="1" height="1" fill="#000000"/>
</svg>
