<svg xmlns="http://www.w3.org/2000/svg" viewBox="0 0 32 32" shape-rendering="crispEdges">
  <!-- Drop shadow -->
  <rect x="7" y="7" width="18" height="18" fill="#7b7b7b"/>

  <!-- App tile -->
  <rect x="6" y="6" width="18" height="18" fill="#000000"/>
  <rect x="7" y="7" width="16" height="16" fill="#d8d8d8"/>
  <rect x="7" y="20" width="16" height="3" fill="#b8b8b8"/>
  <rect x="20" y="8" width="3" height="12" fill="#b8b8b8"/>
  <rect x="7" y="7" width="16" height="1" fill="#ffffff"/>
  <rect x="7" y="7" width="1" height="16" fill="#ffffff"/>

  <!-- Mark: tiny octocat -->
  <rect x="11" y="11" width="8" height="7" fill="#000000"/>
  <rect x="12" y="12" width="6" height="5" fill="#ffffff"/>
  <rect x="10" y="10" width="2" height="2" fill="#000000"/>
  <rect x="18" y="10" width="2" height="2" fill="#000000"/>
  <rect x="13" y="13" width="1" height="1" fill="#000000"/>
  <rect x="16" y="13" width="1" height="1" fill="#000000"/>
  <rect x="12" y="18" width="2" height="4" fill="#000000"/>
  <rect x="13" y="19" width="1" height="3" fill="#ffffff"/>
  <rect x="15" y="17" width="2" height="5" fill="#000000"/>
  <rect x="16" y="18" width="1" height="4" fill="#ffffff"/>
  <rect x="18" y="18" width="2" height="4" fill="#000000"/>
  <rect x="19" y="19" width="1" height="3" fill="#ffffff"/>
</svg>
