<svg xmlns="http://www.w3.org/2000/svg" viewBox="0 0 32 32" shape-rendering="crispEdges">
  <!-- Drop shadow -->
  <rect x="6" y="4" width="20" height="26" fill="#7b7b7b"/>

  <!-- Card base -->
  <rect x="5" y="3" width="20" height="26" fill="#000000"/>
  <rect x="6" y="4" width="18" height="24" fill="#ffffff"/>

  <!-- Spade symbol (center) -->
  <rect x="13" y="11" width="4" height="1" fill="#000000"/>
  <rect x="12" y="12" width="6" height="1" fill="#000000"/>
  <rect x="11" y="13" width="8" height="1" fill="#000000"/>
  <rect x="11" y="14" width="8" height="1" fill="#000000"/>
  <rect x="11" y="15" width="8" height="1" fill="#000000"/>
  <rect x="12" y="16" width="6" height="1" fill="#000000"/>
  <rect x="13" y="17" width="4" height="1" fill="#000000"/>
  <rect x="14" y="18" width="2" height="1" fill="#000000"/>
  <rect x="13" y="19" width="4" height="1" fill="#000000"/>
  <rect x="12" y="20" width="6" height="1" fill="#000000"/>

  <!-- "A" in top-left corner -->
  <rect x="8" y="6" width="3" height="1" fill="#000000"/>
  <rect x="7" y="7" width="1" height="3" fill="#000000"/>
  <rect x="11" y="7" width="1" height="3" fill="#000000"/>
  <rect x="8" y="8" width="3" height="1" fill="#000000"/>

  <!-- Small spade in top-left -->
  <rect x="8" y="10" width="2" height="1" fill="#000000"/>
  <rect x="7" y="11" width="4" height="1" fill="#000000"/>
  <rect x="8" y="12" width="2" height="1" fill="#000000"/>
</svg>
