<svg xmlns="http://www.w3.org/2000/svg" viewBox="0 0 32 32" shape-rendering="crispEdges">
  <!-- Drop shadow -->
  <rect x="5" y="11" width="24" height="16" fill="#7b7b7b"/>

  <!-- Envelope body -->
  <rect x="4" y="10" width="24" height="16" fill="#000000"/>
  <rect x="5" y="11" width="22" height="14" fill="#ffffff"/>

  <!-- Envelope shading -->
  <rect x="5" y="23" width="22" height="2" fill="#b8b8b8"/>
  <rect x="25" y="12" width="2" height="11" fill="#b8b8b8"/>

  <!-- Flap -->
  <rect x="6" y="12" width="2" height="2" fill="#000000"/>
  <rect x="8" y="14" width="2" height="2" fill="#000000"/>
  <rect x="10" y="16" width="2" height="2" fill="#000000"/>
  <rect x="12" y="18" width="2" height="2" fill="#000000"/>
  <rect x="14" y="20" width="4" height="2" fill="#000000"/>
  <rect x="18" y="18" width="2" height="2" fill="#000000"/>
  <rect x="20" y="16" width="2" height="2" fill="#000000"/>
  <rect x="22" y="14" width="2" height="2" fill="#000000"/>
  <rect x="24" y="12" width="2" height="2" fill="#000000"/>

  <!-- Highlights -->
  <rect x="5" y="11" width="22" height="1" fill="#ffffff"/>
  <rect x="5" y="11" width="1" height="14" fill="#ffffff"/>
</svg>
