<svg xmlns="http://www.w3.org/2000/svg" viewBox="0 0 32 32" shape-rendering="crispEdges">
  <!-- Drop shadow -->
  <rect x="10" y="7" width="14" height="1" fill="#7b7b7b"/>
  <rect x="8" y="8" width="2" height="1" fill="#7b7b7b"/>
  <rect x="22" y="8" width="2" height="1" fill="#7b7b7b"/>
  <rect x="7" y="9" width="1" height="2" fill="#7b7b7b"/>
  <rect x="24" y="9" width="1" height="2" fill="#7b7b7b"/>
  <rect x="6" y="11" width="1" height="12" fill="#7b7b7b"/>
  <rect x="25" y="11" width="1" height="12" fill="#7b7b7b"/>
  <rect x="7" y="23" width="1" height="2" fill="#7b7b7b"/>
  <rect x="24" y="23" width="1" height="2" fill="#7b7b7b"/>
  <rect x="8" y="25" width="2" height="1" fill="#7b7b7b"/>
  <rect x="22" y="25" width="2" height="1" fill="#7b7b7b"/>
  <rect x="10" y="26" width="14" height="1" fill="#7b7b7b"/>

  <!-- Circle outline (black border) -->
  <rect x="9" y="5" width="14" height="1" fill="#000000"/>
  <rect x="7" y="6" width="2" height="1" fill="#000000"/>
  <rect x="23" y="6" width="2" height="1" fill="#000000"/>
  <rect x="6" y="7" width="1" height="2" fill="#000000"/>
  <rect x="25" y="7" width="1" height="2" fill="#000000"/>
  <rect x="5" y="9" width="1" height="14" fill="#000000"/>
  <rect x="26" y="9" width="1" height="14" fill="#000000"/>
  <rect x="6" y="23" width="1" height="2" fill="#000000"/>
  <rect x="25" y="23" width="1" height="2" fill="#000000"/>
  <rect x="7" y="25" width="2" height="1" fill="#000000"/>
  <rect x="23" y="25" width="2" height="1" fill="#000000"/>
  <rect x="9" y="26" width="14" height="1" fill="#000000"/>

  <!-- Circle fill (light gray) -->
  <rect x="9" y="6" width="14" height="1" fill="#d8d8d8"/>
  <rect x="7" y="7" width="18" height="1" fill="#d8d8d8"/>
  <rect x="6" y="8" width="20" height="16" fill="#d8d8d8"/>
  <rect x="7" y="24" width="18" height="1" fill="#d8d8d8"/>
  <rect x="9" y="25" width="14" height="1" fill="#d8d8d8"/>

  <!-- Highlight (white on top-left) -->
  <rect x="9" y="6" width="14" height="1" fill="#ffffff"/>
  <rect x="7" y="7" width="2" height="1" fill="#ffffff"/>
  <rect x="6" y="8" width="1" height="14" fill="#ffffff"/>

  <!-- Shadow (darker gray on bottom-right inner) -->
  <rect x="25" y="9" width="1" height="14" fill="#b8b8b8"/>
  <rect x="7" y="24" width="18" height="1" fill="#b8b8b8"/>
  <rect x="9" y="25" width="14" height="1" fill="#b8b8b8"/>

  <!-- Left eye (simple dot) -->
  <rect x="10" y="12" width="2" height="2" fill="#000000"/>

  <!-- Right eye (simple dot) -->
  <rect x="20" y="12" width="2" height="2" fill="#000000"/>

  <!-- Smile curve -->
  <rect x="10" y="18" width="1" height="1" fill="#000000"/>
  <rect x="11" y="19" width="1" height="1" fill="#000000"/>
  <rect x="12" y="20" width="8" height="1" fill="#000000"/>
  <rect x="20" y="19" width="1" height="1" fill="#000000"/>
  <rect x="21" y="18" width="1" height="1" fill="#000000"/>
</svg>
